<svg width="800" height="300" viewBox="0 0 800 300" xmlns="http://www.w3.org/2000/svg">
  <!-- Background wood texture exactly matching the user's image -->
  <defs>
    <!-- Wood pattern with vertical planks -->
    <pattern id="finalWoodBg" patternUnits="userSpaceOnUse" width="50" height="300">
      <rect width="50" height="300" fill="#E6A532"/>
      <!-- Vertical wood planks -->
      <rect x="0" y="0" width="4" height="300" fill="#B8860B"/>
      <rect x="46" y="0" width="4" height="300" fill="#B8860B"/>
      <!-- Wood grain -->
      <rect x="22" y="0" width="2" height="300" fill="#CD853F" opacity="0.4"/>
      <!-- Wood knots -->
      <ellipse cx="25" cy="100" rx="8" ry="16" fill="#A0522D" opacity="0.3"/>
      <ellipse cx="25" cy="220" rx="6" ry="12" fill="#A0522D" opacity="0.25"/>
    </pattern>
    
    <!-- Background gradient -->
    <linearGradient id="finalBgGradient" x1="0%" y1="0%" x2="100%" y2="0%">
      <stop offset="0%" style="stop-color:#F4A460"/>
      <stop offset="25%" style="stop-color:#E6A532"/>
      <stop offset="50%" style="stop-color:#DAA520"/>
      <stop offset="75%" style="stop-color:#E6A532"/>
      <stop offset="100%" style="stop-color:#CD853F"/>
    </linearGradient>
  </defs>
  
  <!-- Wood background -->
  <rect width="800" height="300" fill="url(#finalBgGradient)"/>
  <rect width="800" height="300" fill="url(#finalWoodBg)" opacity="0.6"/>
  
  <!-- Vertical wood planks -->
  <g stroke="#8B4513" stroke-width="6" opacity="0.7">
    <line x1="50" y1="0" x2="50" y2="300"/>
    <line x1="100" y1="0" x2="100" y2="300"/>
    <line x1="150" y1="0" x2="150" y2="300"/>
    <line x1="200" y1="0" x2="200" y2="300"/>
    <line x1="250" y1="0" x2="250" y2="300"/>
    <line x1="300" y1="0" x2="300" y2="300"/>
    <line x1="350" y1="0" x2="350" y2="300"/>
    <line x1="400" y1="0" x2="400" y2="300"/>
    <line x1="450" y1="0" x2="450" y2="300"/>
    <line x1="500" y1="0" x2="500" y2="300"/>
    <line x1="550" y1="0" x2="550" y2="300"/>
    <line x1="600" y1="0" x2="600" y2="300"/>
    <line x1="650" y1="0" x2="650" y2="300"/>
    <line x1="700" y1="0" x2="700" y2="300"/>
    <line x1="750" y1="0" x2="750" y2="300"/>
  </g>
  
  <!-- White circle positioned exactly like in the user's image -->
  <circle cx="280" cy="80" r="45" fill="white" stroke="#8B4513" stroke-width="5"/>
  
  <!-- Three stars HORIZONTALLY aligned inside the circle -->
  <g fill="#8B4513">
    <!-- Left star -->
    <polygon points="255,75 259,83 268,83 262,89 264,97 255,93 246,97 248,89 242,83 251,83"/>
    <!-- Center star -->
    <polygon points="280,75 284,83 293,83 287,89 289,97 280,93 271,97 273,89 267,83 276,83"/>
    <!-- Right star -->
    <polygon points="305,75 309,83 318,83 312,89 314,97 305,93 296,97 298,89 292,83 301,83"/>
  </g>
  
  <!-- Tapioca semicircle/chapéu - exactly like the user's image with scalloped edge -->
  <path d="M 345 60 Q 395 70 390 105 Q 385 115 345 105 Z" fill="white" stroke="#8B4513" stroke-width="5"/>
  <!-- Scalloped edge detail on the tapioca -->
  <path d="M 345 60 Q 350 55 355 60 Q 360 65 365 60 Q 370 55 375 60 Q 380 65 385 60 Q 390 55 390 65" fill="none" stroke="#8B4513" stroke-width="3"/>
  
  <!-- TAPIOCA text - large and bold exactly like the image -->
  <text x="400" y="165" font-family="Arial Black, sans-serif" font-size="75" font-weight="900" text-anchor="middle" fill="#8B4513" letter-spacing="3px">TAPIOCA</text>
  
  <!-- Recheada text with brown shadow/outline exactly like the user's image -->
  <!-- Brown shadow/outline -->
  <text x="402" y="205" font-family="Brush Script MT, cursive" font-size="40" font-weight="bold" text-anchor="middle" fill="#8B4513" font-style="italic" letter-spacing="1px">Recheada</text>
  <text x="398" y="203" font-family="Brush Script MT, cursive" font-size="40" font-weight="bold" text-anchor="middle" fill="#8B4513" font-style="italic" letter-spacing="1px">Recheada</text>
  <text x="402" y="203" font-family="Brush Script MT, cursive" font-size="40" font-weight="bold" text-anchor="middle" fill="#8B4513" font-style="italic" letter-spacing="1px">Recheada</text>
  <text x="398" y="205" font-family="Brush Script MT, cursive" font-size="40" font-weight="bold" text-anchor="middle" fill="#8B4513" font-style="italic" letter-spacing="1px">Recheada</text>
  <!-- Yellow text on top -->
  <text x="400" y="204" font-family="Brush Script MT, cursive" font-size="40" font-weight="bold" text-anchor="middle" fill="#FFFF00" font-style="italic" letter-spacing="1px">Recheada</text>
  
  <!-- DE CHAPA text -->
  <text x="400" y="240" font-family="Arial, sans-serif" font-size="26" font-weight="bold" text-anchor="middle" fill="#8B4513" letter-spacing="6px">DE CHAPA</text>
</svg> 